<svg aria-hidden="true" style="position: absolute; width: 0; height: 0; overflow: hidden;" version="1.1" xmlns="http://www.w3.org/2000/svg" xmlns:xlink="http://www.w3.org/1999/xlink">
<defs>
<symbol id="icon-dropdown-12" viewBox="0 0 32 32">
<path fill="#8c8c8c" style="fill: var(--color1, #8c8c8c)" d="M17.584 24.464l13.759-13.76c0.875-0.875 0.875-2.294 0-3.169s-2.294-0.875-3.169 0l-12.175 12.175-12.174-12.175c-0.875-0.875-2.294-0.875-3.169 0s-0.875 2.294 0 3.169l13.759 13.76c0.438 0.438 1.011 0.656 1.584 0.656s1.147-0.219 1.584-0.656z"></path>
</symbol>
<symbol id="icon-sort-20" viewBox="0 0 32 32">
<path fill="#8c8c8c" style="fill: var(--color1, #8c8c8c)" d="M6.4 0.312c0.417-0.417 1.092-0.417 1.508 0l6.4 6.4-1.508 1.508-4.579-4.579v28.358h-2.133v-28.358l-4.579 4.579-1.508-1.508 6.4-6.4zM24.221 2.133c-1.767 0-3.2 1.433-3.2 3.2v3.2h6.4v-3.2c0-1.767-1.433-3.2-3.2-3.2zM27.421 10.667v4.267h2.133v-9.6c0-2.946-2.388-5.333-5.333-5.333s-5.333 2.388-5.333 5.333v9.6h2.133v-4.267h6.4zM18.888 17.067h6.4c2.356 0 4.267 1.91 4.267 4.267 0 1.274-0.559 2.418-1.444 3.2 0.886 0.782 1.444 1.926 1.444 3.2 0 2.356-1.91 4.267-4.267 4.267h-6.4v-14.933zM25.288 23.467c1.178 0 2.133-0.955 2.133-2.133s-0.955-2.133-2.133-2.133h-4.267v4.267h4.267zM21.021 25.6h4.267c1.178 0 2.133 0.955 2.133 2.133s-0.955 2.133-2.133 2.133h-4.267v-4.267z"></path>
</symbol>
<symbol id="icon-success-20" viewBox="0 0 32 32">
<path fill="#97eab9" style="fill: var(--color2, #97eab9)" d="M0 16c0-8.837 7.163-16 16-16s16 7.163 16 16c0 8.836-7.164 16-16 16s-16-7.164-16-16zM16 2.133c-7.658 0-13.867 6.208-13.867 13.867s6.208 13.867 13.867 13.867c7.658 0 13.867-6.208 13.867-13.867s-6.208-13.867-13.867-13.867zM24.3 11.333l-9.213 11.516-7.236-6.030 1.366-1.639 5.564 4.637 7.854-9.817 1.666 1.333z"></path>
</symbol>
<symbol id="icon-error-20" viewBox="0 0 32 32">
<path fill="#ff868e" style="fill: var(--color3, #ff868e)" d="M0 16c0-8.837 7.163-16 16-16s16 7.163 16 16c0 8.836-7.164 16-16 16s-16-7.164-16-16zM16 2.133c-7.658 0-13.867 6.208-13.867 13.867s6.208 13.867 13.867 13.867c7.658 0 13.867-6.208 13.867-13.867s-6.208-13.867-13.867-13.867zM14.492 16l-5.646-5.646 1.508-1.508 5.646 5.646 5.646-5.646 1.508 1.508-5.646 5.646 5.646 5.646-1.508 1.508-5.646-5.646-5.646 5.646-1.508-1.508 5.646-5.646z"></path>
</symbol>
<symbol id="icon-dislike-color-20" viewBox="0 0 32 32">
<path fill="#ffd280" style="fill: var(--color4, #ffd280)" d="M0 16c0-8.837 7.163-16 16-16s16 7.163 16 16c0 8.836-7.164 16-16 16s-16-7.164-16-16zM16 2.133c-7.658 0-13.867 6.208-13.867 13.867s6.208 13.867 13.867 13.867c7.658 0 13.867-6.208 13.867-13.867s-6.208-13.867-13.867-13.867zM10.667 12.8h-2.133v-2.133h2.133v2.133zM23.467 12.8h-2.133v-2.133h2.133v2.133zM8.107 21.547l0.64-0.853c3.627-4.835 10.88-4.835 14.507 0l0.64 0.853-1.707 1.28-0.64-0.853c-2.773-3.698-8.32-3.698-11.093 0l-0.64 0.853-1.707-1.28z"></path>
</symbol>
<symbol id="icon-like-color-20" viewBox="0 0 32 32">
<path fill="#97eab9" style="fill: var(--color2, #97eab9)" d="M0 16c0-8.837 7.163-16 16-16s16 7.163 16 16c0 8.836-7.164 16-16 16s-16-7.164-16-16zM16 2.133c-7.658 0-13.867 6.208-13.867 13.867s6.208 13.867 13.867 13.867c7.658 0 13.867-6.208 13.867-13.867s-6.208-13.867-13.867-13.867zM10.667 12.8h-2.133v-2.133h2.133v2.133zM23.467 12.8h-2.133v-2.133h2.133v2.133zM9.813 17.707l0.64 0.853c2.773 3.698 8.32 3.698 11.093 0l0.64-0.853 1.707 1.28-0.64 0.853c-3.627 4.836-10.88 4.836-14.507 0l-0.64-0.853 1.707-1.28z"></path>
</symbol>
<symbol id="icon-sort-revert-color-20" viewBox="0 0 32 32">
<path fill="#ff868e" style="fill: var(--color3, #ff868e)" d="M6.088 28.358v-28.358h2.133v28.358l4.579-4.579 1.508 1.508-6.4 6.4c-0.2 0.2-0.471 0.312-0.754 0.312s-0.554-0.112-0.754-0.312l-6.4-6.4 1.508-1.508 4.579 4.579zM24.221 2.133c-1.767 0-3.2 1.433-3.2 3.2v3.2h6.4v-3.2c0-1.767-1.433-3.2-3.2-3.2zM27.421 10.667v4.267h2.133v-9.6c0-2.946-2.388-5.333-5.333-5.333s-5.333 2.388-5.333 5.333v9.6h2.133v-4.267h6.4zM18.888 17.067h6.4c2.356 0 4.267 1.91 4.267 4.267 0 1.274-0.559 2.418-1.444 3.2 0.886 0.782 1.444 1.926 1.444 3.2 0 2.356-1.91 4.267-4.267 4.267h-6.4v-14.933zM25.288 23.467c1.178 0 2.133-0.955 2.133-2.133s-0.955-2.133-2.133-2.133h-4.267v4.267h4.267zM21.021 25.6h4.267c1.178 0 2.133 0.955 2.133 2.133s-0.955 2.133-2.133 2.133h-4.267v-4.267z"></path>
</symbol>
<symbol id="icon-sort-revert-20" viewBox="0 0 32 32">
<path fill="#8c8c8c" style="fill: var(--color1, #8c8c8c)" d="M6.088 28.358v-28.358h2.133v28.358l4.579-4.579 1.508 1.508-6.4 6.4c-0.2 0.2-0.471 0.312-0.754 0.312s-0.554-0.112-0.754-0.312l-6.4-6.4 1.508-1.508 4.579 4.579zM24.221 2.133c-1.767 0-3.2 1.433-3.2 3.2v3.2h6.4v-3.2c0-1.767-1.433-3.2-3.2-3.2zM27.421 10.667v4.267h2.133v-9.6c0-2.946-2.388-5.333-5.333-5.333s-5.333 2.388-5.333 5.333v9.6h2.133v-4.267h6.4zM18.888 17.067h6.4c2.356 0 4.267 1.91 4.267 4.267 0 1.274-0.559 2.418-1.444 3.2 0.886 0.782 1.444 1.926 1.444 3.2 0 2.356-1.91 4.267-4.267 4.267h-6.4v-14.933zM25.288 23.467c1.178 0 2.133-0.955 2.133-2.133s-0.955-2.133-2.133-2.133h-4.267v4.267h4.267zM21.021 25.6h4.267c1.178 0 2.133 0.955 2.133 2.133s-0.955 2.133-2.133 2.133h-4.267v-4.267z"></path>
</symbol>
<symbol id="icon-sort-color-20" viewBox="0 0 32 32">
<path fill="#ff868e" style="fill: var(--color3, #ff868e)" d="M6.4 0.312c0.417-0.417 1.092-0.417 1.508 0l6.4 6.4-1.508 1.508-4.579-4.579v28.358h-2.133v-28.358l-4.579 4.579-1.508-1.508 6.4-6.4zM24.221 2.133c-1.767 0-3.2 1.433-3.2 3.2v3.2h6.4v-3.2c0-1.767-1.433-3.2-3.2-3.2zM27.421 10.667v4.267h2.133v-9.6c0-2.946-2.388-5.333-5.333-5.333s-5.333 2.388-5.333 5.333v9.6h2.133v-4.267h6.4zM18.888 17.067h6.4c2.356 0 4.267 1.91 4.267 4.267 0 1.274-0.559 2.418-1.444 3.2 0.886 0.782 1.444 1.926 1.444 3.2 0 2.356-1.91 4.267-4.267 4.267h-6.4v-14.933zM25.288 23.467c1.178 0 2.133-0.955 2.133-2.133s-0.955-2.133-2.133-2.133h-4.267v4.267h4.267zM21.021 25.6h4.267c1.178 0 2.133 0.955 2.133 2.133s-0.955 2.133-2.133 2.133h-4.267v-4.267z"></path>
</symbol>
<symbol id="icon-update-20" viewBox="0 0 32 32">
<path fill="#ff868e" style="fill: var(--color3, #ff868e)" d="M15.171 4l-2.477-2.475 1.524-1.525 5.074 5.071-5.074 5.071-1.524-1.525 2.461-2.46c-6.336 0.24-11.4 5.451-11.4 11.839 0 6.541 5.309 11.848 11.856 11.848s11.856-5.307 11.856-11.848v-1.078h2.156v1.078c0 7.733-6.276 14.004-14.012 14.004s-14.012-6.27-14.012-14.004c0-7.586 6.038-13.764 13.571-13.997z"></path>
</symbol>
<symbol id="icon-close-20" viewBox="0 0 32 32">
<path fill="#ff868e" style="fill: var(--color3, #ff868e)" d="M14.491 16l-12.046-12.046 1.508-1.508 12.046 12.046 12.046-12.046 1.508 1.508-12.046 12.046 12.046 12.046-1.508 1.508-12.046-12.046-12.046 12.046-1.508-1.508 12.046-12.046z"></path>
</symbol>
<symbol id="icon-search-20" viewBox="0 0 32 32">
<path fill="#ff868e" style="fill: var(--color3, #ff868e)" d="M30.978 29.147l-7.616-7.921c1.958-2.328 3.031-5.257 3.031-8.306 0-7.124-5.796-12.92-12.92-12.92s-12.92 5.796-12.92 12.92c0 7.124 5.796 12.92 12.92 12.92 2.674 0 5.223-0.807 7.402-2.338l7.674 7.981c0.321 0.333 0.752 0.517 1.214 0.517 0.438 0 0.853-0.167 1.168-0.47 0.67-0.644 0.691-1.713 0.047-2.383zM13.473 3.37c5.266 0 9.55 4.284 9.55 9.55s-4.284 9.55-9.55 9.55-9.55-4.284-9.55-9.55c0-5.266 4.284-9.55 9.55-9.55z"></path>
</symbol>
<symbol id="icon-fav-color-20" viewBox="0 0 32 32">
<path fill="#ff868e" style="fill: var(--color3, #ff868e)" d="M8.609 1.6c-4.755 0-8.609 3.854-8.609 8.609 0 2.283 0.907 4.473 2.522 6.087l12.724 12.724c0.417 0.416 1.092 0.416 1.508 0l12.724-12.724c1.615-1.614 2.522-3.804 2.522-6.088 0-4.755-3.854-8.609-8.609-8.609-2.283 0-4.473 0.907-6.088 2.522l-1.303 1.303-1.303-1.303c-1.615-1.615-3.804-2.522-6.088-2.522z"></path>
</symbol>
<symbol id="icon-fav-20" viewBox="0 0 32 32">
<path fill="#ff868e" style="fill: var(--color3, #ff868e)" d="M8.609 3.733c-3.576 0-6.476 2.899-6.476 6.476 0 1.717 0.682 3.365 1.897 4.579l11.97 11.97 11.97-11.97c1.214-1.214 1.897-2.862 1.897-4.579 0-3.576-2.899-6.476-6.476-6.476-1.717 0-3.365 0.682-4.579 1.897l-2.058 2.058c-0.416 0.417-1.092 0.417-1.508 0l-2.058-2.058c-1.214-1.214-2.862-1.897-4.579-1.897zM0 10.209c0-4.755 3.854-8.609 8.609-8.609 2.283 0 4.473 0.907 6.088 2.522l1.303 1.303 1.303-1.303c1.614-1.615 3.804-2.522 6.088-2.522 4.755 0 8.609 3.854 8.609 8.609 0 2.283-0.907 4.473-2.522 6.087l-12.724 12.724c-0.416 0.416-1.092 0.416-1.508 0l-12.724-12.724c-1.615-1.614-2.522-3.804-2.522-6.088z"></path>
</symbol>
<symbol id="icon-upload-16" viewBox="0 0 32 32">
<path fill="#ff868e" style="fill: var(--color3, #ff868e)" d="M15.732 0l8.739 8.067-1.645 1.782-5.847-5.398v20.272h-2.425v-20.114l-5.206 5.206-1.715-1.715 8.1-8.1zM2.425 29.575v-14.553h-2.425v16.978h31.531v-16.978h-2.425v14.553h-26.68z"></path>
</symbol>
<symbol id="icon-loading-16" viewBox="0 0 32 32">
<path stroke-linejoin="miter" stroke-linecap="butt" stroke-miterlimit="4" stroke-width="4" d="M30 16c0 7.732-6.268 14-14 14s-14-6.268-14-14c0-7.732 6.268-14 14-14s14 6.268 14 14z"></path>
</symbol>
<symbol id="icon-back-20" viewBox="0 0 32 32">
<path fill="#ff868e" style="fill: var(--color3, #ff868e)" d="M7.536 17.584l13.76 13.759c0.875 0.876 2.294 0.876 3.169 0s0.875-2.294 0-3.169l-12.175-12.175 12.175-12.174c0.875-0.875 0.875-2.294 0-3.169s-2.294-0.875-3.169 0l-13.76 13.759c-0.437 0.438-0.656 1.011-0.656 1.584s0.219 1.147 0.656 1.584z"></path>
</symbol>
<symbol id="icon-dislike-30" viewBox="0 0 32 32">
<path fill="#ff868e" style="fill: var(--color3, #ff868e)" d="M0 16c0-8.837 7.163-16 16-16s16 7.163 16 16c0 8.837-7.163 16-16 16s-16-7.163-16-16zM16 2.133c-7.658 0-13.867 6.208-13.867 13.867s6.208 13.867 13.867 13.867c7.658 0 13.867-6.208 13.867-13.867s-6.208-13.867-13.867-13.867zM10.667 12.8h-2.133v-2.133h2.133v2.133zM23.467 12.8h-2.133v-2.133h2.133v2.133zM8.107 21.547l0.64-0.853c3.627-4.836 10.88-4.836 14.507 0l0.64 0.853-1.707 1.28-0.64-0.853c-2.773-3.698-8.32-3.698-11.093 0l-0.64 0.853-1.707-1.28z"></path>
</symbol>
<symbol id="icon-Vector-348-Stroke" viewBox="0 0 37 32">
<path fill="#ff868e" style="fill: var(--color3, #ff868e)" d="M9.934 2.462c-4.127 0-7.472 3.345-7.472 7.472 0 1.982 0.787 3.882 2.189 5.284l13.811 13.811 13.811-13.811c1.401-1.401 2.189-3.302 2.189-5.284 0-4.127-3.345-7.472-7.472-7.472-1.982 0-3.882 0.787-5.284 2.189l-2.374 2.374c-0.481 0.481-1.26 0.481-1.741 0l-2.374-2.374c-1.401-1.401-3.302-2.189-5.284-2.189zM0 9.934c0-5.486 4.447-9.934 9.934-9.934 2.634 0 5.161 1.047 7.024 2.909l1.504 1.504 1.504-1.504c1.863-1.863 4.39-2.909 7.024-2.909 5.486 0 9.934 4.447 9.934 9.934 0 2.634-1.047 5.161-2.91 7.024l-14.682 14.682c-0.481 0.481-1.26 0.481-1.741 0l-14.682-14.682c-1.863-1.863-2.909-4.39-2.909-7.024z"></path>
</symbol>
<symbol id="icon-Vector-348-white-Stroke" viewBox="0 0 37 32">
<path fill="#ffffff"  d="M9.934 2.462c-4.127 0-7.472 3.345-7.472 7.472 0 1.982 0.787 3.882 2.189 5.284l13.811 13.811 13.811-13.811c1.401-1.401 2.189-3.302 2.189-5.284 0-4.127-3.345-7.472-7.472-7.472-1.982 0-3.882 0.787-5.284 2.189l-2.374 2.374c-0.481 0.481-1.26 0.481-1.741 0l-2.374-2.374c-1.401-1.401-3.302-2.189-5.284-2.189zM0 9.934c0-5.486 4.447-9.934 9.934-9.934 2.634 0 5.161 1.047 7.024 2.909l1.504 1.504 1.504-1.504c1.863-1.863 4.39-2.909 7.024-2.909 5.486 0 9.934 4.447 9.934 9.934 0 2.634-1.047 5.161-2.91 7.024l-14.682 14.682c-0.481 0.481-1.26 0.481-1.741 0l-14.682-14.682c-1.863-1.863-2.909-4.39-2.909-7.024z"></path>
</symbol>
<symbol id="icon-fav-color-30" viewBox="0 0 32 32">
<path fill="#ff868e" style="fill: var(--color3, #ff868e)" d="M8.609 2.133c-4.755 0-8.609 3.854-8.609 8.609 0 2.283 0.907 4.473 2.522 6.088l12.724 12.724c0.417 0.417 1.092 0.417 1.508 0l12.724-12.724c1.615-1.614 2.522-3.804 2.522-6.088 0-4.755-3.854-8.609-8.609-8.609-2.283 0-4.473 0.907-6.088 2.522l-1.303 1.303-1.303-1.303c-1.614-1.615-3.804-2.522-6.088-2.522z"></path>
</symbol>
<symbol id="icon-dislike-color-30" viewBox="0 0 32 32">
<path fill="#ffd280" style="fill: var(--color4, #ffd280)" d="M0 16c0-8.837 7.163-16 16-16s16 7.163 16 16c0 8.837-7.163 16-16 16s-16-7.163-16-16zM16 2.133c-7.658 0-13.867 6.208-13.867 13.867s6.208 13.867 13.867 13.867c7.658 0 13.867-6.208 13.867-13.867s-6.208-13.867-13.867-13.867zM10.667 12.8h-2.133v-2.133h2.133v2.133zM23.467 12.8h-2.133v-2.133h2.133v2.133zM8.107 21.547l0.64-0.853c3.627-4.836 10.88-4.836 14.507 0l0.64 0.853-1.707 1.28-0.64-0.853c-2.773-3.698-8.32-3.698-11.093 0l-0.64 0.853-1.707-1.28z"></path>
</symbol>
<symbol id="icon-dislike-white-30" viewBox="0 0 32 32">
<path fill="#ffffff"  d="M0 16c0-8.837 7.163-16 16-16s16 7.163 16 16c0 8.837-7.163 16-16 16s-16-7.163-16-16zM16 2.133c-7.658 0-13.867 6.208-13.867 13.867s6.208 13.867 13.867 13.867c7.658 0 13.867-6.208 13.867-13.867s-6.208-13.867-13.867-13.867zM10.667 12.8h-2.133v-2.133h2.133v2.133zM23.467 12.8h-2.133v-2.133h2.133v2.133zM8.107 21.547l0.64-0.853c3.627-4.836 10.88-4.836 14.507 0l0.64 0.853-1.707 1.28-0.64-0.853c-2.773-3.698-8.32-3.698-11.093 0l-0.64 0.853-1.707-1.28z"></path>
</symbol>
<symbol id="icon-like-color-30" viewBox="0 0 32 32">
<path fill="#97eab9" style="fill: var(--color2, #97eab9)" d="M0 16c0-8.837 7.163-16 16-16s16 7.163 16 16c0 8.837-7.163 16-16 16s-16-7.163-16-16zM16 2.133c-7.658 0-13.867 6.208-13.867 13.867s6.208 13.867 13.867 13.867c7.658 0 13.867-6.208 13.867-13.867s-6.208-13.867-13.867-13.867zM10.667 12.8h-2.133v-2.133h2.133v2.133zM23.467 12.8h-2.133v-2.133h2.133v2.133zM9.813 17.707l0.64 0.853c2.773 3.698 8.32 3.698 11.093 0l0.64-0.853 1.707 1.28-0.64 0.853c-3.627 4.836-10.88 4.836-14.507 0l-0.64-0.853 1.707-1.28z"></path>
</symbol>
<symbol id="icon-like-30" viewBox="0 0 32 32">
<path fill="#ff868e" style="fill: var(--color3, #ff868e)" d="M0 16c0-8.837 7.163-16 16-16s16 7.163 16 16c0 8.837-7.163 16-16 16s-16-7.163-16-16zM16 2.133c-7.658 0-13.867 6.208-13.867 13.867s6.208 13.867 13.867 13.867c7.658 0 13.867-6.208 13.867-13.867s-6.208-13.867-13.867-13.867zM10.667 12.8h-2.133v-2.133h2.133v2.133zM23.467 12.8h-2.133v-2.133h2.133v2.133zM9.813 17.707l0.64 0.853c2.773 3.698 8.32 3.698 11.093 0l0.64-0.853 1.707 1.28-0.64 0.853c-3.627 4.836-10.88 4.836-14.507 0l-0.64-0.853 1.707-1.28z"></path>
</symbol>
<symbol id="icon-like-white-30" viewBox="0 0 32 32">
<path fill="#ffffff"  d="M0 16c0-8.837 7.163-16 16-16s16 7.163 16 16c0 8.837-7.163 16-16 16s-16-7.163-16-16zM16 2.133c-7.658 0-13.867 6.208-13.867 13.867s6.208 13.867 13.867 13.867c7.658 0 13.867-6.208 13.867-13.867s-6.208-13.867-13.867-13.867zM10.667 12.8h-2.133v-2.133h2.133v2.133zM23.467 12.8h-2.133v-2.133h2.133v2.133zM9.813 17.707l0.64 0.853c2.773 3.698 8.32 3.698 11.093 0l0.64-0.853 1.707 1.28-0.64 0.853c-3.627 4.836-10.88 4.836-14.507 0l-0.64-0.853 1.707-1.28z"></path>
</symbol>
<symbol id="icon-logo" viewBox="0 0 141 32">
<path fill="#ff868e" style="fill: var(--color3, #ff868e)" d="M10.454 16.61c0-3.4 2.756-6.156 6.156-6.156h9.234c3.4 0 6.156 2.756 6.156 6.156s-2.756 6.156-6.156 6.156h-9.234c-3.4 0-6.156-2.756-6.156-6.156z"></path>
<path fill="#ff868e" style="fill: var(--color3, #ff868e)" d="M16.61 32c-3.4 0-6.156-2.756-6.156-6.156v-9.234c0-3.4 2.756-6.156 6.156-6.156v0c3.4 0 6.156 2.756 6.156 6.156v9.234c0 3.4-2.756 6.156-6.156 6.156v0z"></path>
<path fill="#ff868e" style="fill: var(--color3, #ff868e)" d="M15.39 3.847c0 2.125-1.723 3.847-3.847 3.847s-3.847-1.723-3.847-3.847 1.723-3.847 3.847-3.847c2.125 0 3.847 1.723 3.847 3.847z"></path>
<path fill="#ff868e" style="fill: var(--color3, #ff868e)" d="M7.695 22.315c0 2.125-1.723 3.847-3.847 3.847s-3.847-1.723-3.847-3.847c0-2.125 1.723-3.847 3.847-3.847s3.847 1.723 3.847 3.847z"></path>
<path fill="#ff868e" style="fill: var(--color3, #ff868e)" d="M26.162 3.847c0 2.125-1.723 3.847-3.847 3.847s-3.847-1.723-3.847-3.847c0-2.125 1.723-3.847 3.847-3.847s3.847 1.723 3.847 3.847z"></path>
<path fill="#ff868e" style="fill: var(--color3, #ff868e)" d="M7.695 11.542c0 2.125-1.723 3.847-3.847 3.847s-3.847-1.723-3.847-3.847c0-2.125 1.723-3.847 3.847-3.847s3.847 1.723 3.847 3.847z"></path>
<path fill="#1d1d1d" style="fill: var(--color5, #1d1d1d)" d="M42.526 25.067v-16.486h7.731c1.297 0 2.355 0.247 3.174 0.742 0.836 0.495 1.459 1.169 1.869 2.022s0.614 1.826 0.614 2.918c0 1.109-0.239 2.091-0.717 2.944-0.461 0.853-1.126 1.519-1.997 1.997-0.853 0.461-1.869 0.691-3.046 0.691h-4.173v5.171h-3.456zM45.982 17.156h3.456c0.99 0 1.732-0.256 2.227-0.768 0.512-0.529 0.768-1.237 0.768-2.125 0-0.956-0.239-1.681-0.717-2.176-0.478-0.512-1.195-0.768-2.15-0.768h-3.584v5.837z"></path>
<path fill="#1d1d1d" style="fill: var(--color5, #1d1d1d)" d="M64.149 25.323c-2.099 0-3.763-0.521-4.992-1.562-1.229-1.058-1.843-2.654-1.843-4.787 0-1.929 0.512-3.456 1.536-4.582 1.041-1.143 2.586-1.715 4.634-1.715 1.877 0 3.311 0.495 4.301 1.485 1.007 0.973 1.51 2.253 1.51 3.84v2.202h-8.781c0.188 0.973 0.631 1.638 1.331 1.997 0.717 0.358 1.724 0.538 3.021 0.538 0.649 0 1.306-0.060 1.971-0.179 0.683-0.119 1.263-0.273 1.741-0.461v2.458c-0.563 0.256-1.22 0.444-1.971 0.563-0.751 0.137-1.57 0.205-2.458 0.205zM60.514 18.078h5.76v-0.666c0-0.7-0.205-1.246-0.614-1.638-0.41-0.41-1.101-0.614-2.074-0.614-1.143 0-1.946 0.23-2.406 0.691-0.444 0.461-0.666 1.203-0.666 2.227z"></path>
<path fill="#1d1d1d" style="fill: var(--color5, #1d1d1d)" d="M76.514 25.323c-1.399 0-2.441-0.367-3.123-1.101-0.666-0.734-0.998-1.732-0.998-2.995v-5.632h-1.715v-2.662h1.715v-2.611l3.456-1.024v3.635h3.072l-0.205 2.662h-2.867v5.402c0 0.666 0.154 1.126 0.461 1.382 0.307 0.239 0.785 0.358 1.434 0.358 0.478 0 0.973-0.085 1.485-0.256v2.381c-0.375 0.154-0.785 0.265-1.229 0.333-0.444 0.085-0.939 0.128-1.485 0.128z"></path>
<path fill="#1d1d1d" style="fill: var(--color5, #1d1d1d)" d="M85.276 25.323c-0.905 0-1.766-0.068-2.586-0.205-0.819-0.119-1.476-0.273-1.971-0.461v-2.867c0.597 0.239 1.271 0.427 2.022 0.563 0.751 0.119 1.442 0.179 2.074 0.179 0.853 0 1.451-0.051 1.792-0.154 0.358-0.102 0.538-0.333 0.538-0.691 0-0.41-0.273-0.708-0.819-0.896-0.529-0.188-1.323-0.452-2.381-0.794-1.109-0.375-1.963-0.828-2.56-1.357s-0.896-1.314-0.896-2.355c0-1.161 0.418-2.048 1.254-2.662 0.853-0.631 2.219-0.947 4.096-0.947 0.751 0 1.459 0.060 2.125 0.179 0.666 0.102 1.229 0.23 1.69 0.384v2.842c-0.461-0.222-0.99-0.384-1.587-0.486-0.597-0.119-1.152-0.179-1.664-0.179-0.734 0-1.323 0.051-1.766 0.154-0.427 0.102-0.64 0.324-0.64 0.666 0 0.375 0.23 0.64 0.691 0.794 0.478 0.154 1.212 0.384 2.202 0.691 0.973 0.29 1.732 0.606 2.278 0.947s0.93 0.751 1.152 1.229c0.222 0.461 0.333 1.041 0.333 1.741 0 2.458-1.792 3.686-5.376 3.686z"></path>
<path fill="#1d1d1d" style="fill: var(--color5, #1d1d1d)" d="M93.051 25.067v-16.486h7.731c1.297 0 2.355 0.247 3.174 0.742 0.836 0.495 1.459 1.169 1.869 2.022s0.614 1.826 0.614 2.918c0 1.109-0.239 2.091-0.717 2.944-0.461 0.853-1.126 1.519-1.997 1.997-0.853 0.461-1.869 0.691-3.046 0.691h-4.173v5.171h-3.456zM96.507 17.156h3.456c0.99 0 1.732-0.256 2.227-0.768 0.512-0.529 0.768-1.237 0.768-2.125 0-0.956-0.239-1.681-0.717-2.176-0.478-0.512-1.195-0.768-2.15-0.768h-3.584v5.837z"></path>
<path fill="#1d1d1d" style="fill: var(--color5, #1d1d1d)" d="M111.665 25.323c-0.768 0-1.485-0.137-2.15-0.41-0.649-0.29-1.178-0.708-1.587-1.254-0.393-0.563-0.589-1.263-0.589-2.099 0-1.195 0.418-2.15 1.254-2.867 0.853-0.717 2.108-1.075 3.763-1.075h3.584v-0.333c0-0.751-0.213-1.28-0.64-1.587-0.41-0.307-1.246-0.461-2.509-0.461-1.382 0-2.714 0.213-3.994 0.64v-2.432c0.563-0.222 1.246-0.401 2.048-0.538 0.819-0.154 1.707-0.23 2.662-0.23 1.826 0 3.234 0.375 4.224 1.126 1.007 0.734 1.51 1.92 1.51 3.558v7.706h-2.995l-0.179-1.101c-0.478 0.427-1.067 0.759-1.766 0.998s-1.579 0.358-2.637 0.358zM112.613 23.044c0.768 0 1.434-0.128 1.997-0.384s1.007-0.58 1.331-0.973v-1.92h-3.507c-1.348 0-2.022 0.555-2.022 1.664 0 1.075 0.734 1.613 2.202 1.613z"></path>
<path fill="#1d1d1d" style="fill: var(--color5, #1d1d1d)" d="M124.064 25.067l-3.2-12.134h3.456l1.843 7.885 2.022-6.323v-1.562h2.637l2.304 7.885 1.792-7.885h3.431l-3.175 12.134h-3.175l-2.33-7.091-2.381 7.091h-3.226z"></path>
</symbol>
</defs>
</svg>
